<svg xmlns="http://www.w3.org/2000/svg" xmlns:xlink="http://www.w3.org/1999/xlink" width="0" height="0" style="position:absolute">

<symbol id="svg-icon-air-pressure" viewBox="0 0 100 94.312">
        <path d="M100 18.488c0-.224-.018-.443-.053-.658V4.812c.035-.214.053-.434.053-.658C100 1.87 98.13 0 95.845 0H83.54c-2.388 0-4.153 1.87-4.153 4.154 0 2.285 1.87 4.154 4.154 4.154h8.1v6.026h-4.206c-2.39 0-4.155 1.87-4.155 4.154s1.87 4.154 4.154 4.154h4.206v6.025h-4.207c-2.39 0-4.155 1.87-4.155 4.154s1.87 4.156 4.155 4.156h4.206V43h-8.1c-2.39 0-4.154 1.87-4.154 4.154s1.87 4.154 4.154 4.154h8.1v6.025h-4.207c-2.39 0-4.155 1.87-4.155 4.154s1.87 4.154 4.155 4.154h4.206v6.027H87.43c-2.39 0-4.155 1.87-4.155 4.154s1.87 4.155 4.155 4.155h4.206V86h-8.1c-2.388 0-4.153 1.868-4.153 4.153s1.87 4.154 4.154 4.154h12.305c2.285 0 4.154-1.87 4.154-4.154 0-.224-.02-.443-.054-.658V76.482c.035-.215.053-.435.053-.658s-.02-.443-.054-.658V62.148c.035-.215.053-.435.053-.658s-.02-.443-.054-.658V47.814c.035-.215.053-.435.053-.658s-.02-.443-.054-.658V33.48c.035-.215.053-.435.053-.658s-.02-.443-.054-.658V19.146c.035-.215.053-.435.053-.658zM69.918.07c-2.256 0-4.083 1.83-4.083 4.084 0 18.585-3.146 26.258-6.478 34.38-3.27 7.98-6.912 16.858-7.952 35.998-3.326-.032-5.954.123-5.947 1.346-.015.146-.02.398-.018.438v.037c.003.06.017.224.018.23.028.267.09.532.182.788l6.123 14.65c.476 1.355 1.87 2.29 3.43 2.29.926 0 1.814-.33 2.5-.936.424-.374.744-.835.93-1.336l6.095-14.576.035-.088c.09-.253.15-.517.183-.798.007-.066.016-.235.018-.33V76.22c0-.076-.007-.23-.02-.345 0-.948-2.32-1.16-5.362-1.226.97-17.475 4.2-25.356 7.342-33.018C70.398 33.136 74 24.35 74 4.154 74 1.9 72.173.07 69.918.07zM51.182 4.154C51.182 1.9 49.354.07 47.1.07c-2.256 0-4.084 1.83-4.084 4.084 0 18.585-3.146 26.258-6.478 34.38-3.27 7.98-6.91 16.858-7.95 35.998-3.327-.032-5.955.123-5.948 1.346-.015.146-.02.398-.02.438l.003.037c.002.06.016.224.016.23.027.267.09.532.18.788l6.124 14.65c.476 1.355 1.87 2.29 3.43 2.29.926 0 1.814-.33 2.5-.936.423-.374.743-.835.93-1.336L41.9 77.46l.035-.088c.09-.253.15-.517.183-.798.007-.066.016-.235.017-.33V76.217c0-.075-.007-.23-.018-.344 0-.948-2.322-1.16-5.363-1.226.97-17.474 4.2-25.355 7.342-33.017 3.483-8.494 7.086-17.28 7.086-37.476zm-22.622 0C28.56 1.9 26.732.07 24.477.07s-4.082 1.83-4.082 4.084c0 18.585-3.146 26.258-6.48 34.38-3.27 7.98-6.91 16.858-7.95 35.998-3.328-.032-5.955.123-5.95 1.346-.013.146-.017.4-.016.44v.036c.002.06.016.224.017.23.028.267.09.532.182.788l6.123 14.65c.476 1.353 1.87 2.29 3.43 2.29.926 0 1.813-.333 2.5-.938.423-.374.743-.835.93-1.336l6.095-14.576.034-.09c.09-.252.15-.516.182-.797.008-.066.017-.235.018-.33V76.218c0-.075-.007-.23-.018-.344 0-.948-2.322-1.16-5.363-1.226.97-17.474 4.2-25.355 7.343-33.017 3.482-8.493 7.085-17.28 7.085-37.475z"/>
</symbol>

<symbol id="svg-icon-arrow-btn" viewBox="0 0 50 64.287">
        <path fill-rule="evenodd" clip-rule="evenodd" d="M0 0l50 32.142L0 64.287V0z"/>
</symbol>

<symbol id="svg-icon-arrow-down" viewBox="0 0 99.992 50">
        <path fill-rule="evenodd" clip-rule="evenodd" d="M99.992 0L49.996 50 0 0h99.992z"/>
</symbol>

<symbol id="svg-icon-close" viewBox="0 0 30 30.01">
        <path d="M30 25.27l-4.73 4.74-10.275-10.266L4.73 30 0 25.26l10.256-10.255L0 4.74 4.74.01l10.255 10.256L25.27 0 30 4.73 19.734 15.005 30 25.27z"/>
</symbol>

<symbol id="svg-icon-gps" viewBox="0 0 71.066 100">
        <path d="M35.088 0C20.278 0 8.27 12.005 8.27 26.815s13.55 35.7 26.817 58.51c13.41-22.68 26.814-43.7 26.814-58.51C61.904 12.005 49.898 0 35.09 0zm0 40.055c-7.313 0-13.24-5.928-13.24-13.24s5.928-13.24 13.24-13.24 13.238 5.928 13.238 13.24-5.927 13.24-13.24 13.24z"/><path d="M28.752 99.692c19.23 1.752 37.918-4.15 41.657-13.156 2.272-5.48-1.437-11.094-9.923-15.02-.793-.367-1.765-.598-2.782-.69-1.728-.156-3.586.08-4.916.71-2.113 1.002-2.093 2.616.046 3.605 5.89 2.728 8.464 6.624 6.887 10.425-2.595 6.246-15.556 10.34-28.895 9.125-13.34-1.216-22.08-7.286-19.487-13.532.597-1.434 1.74-2.78 3.398-3.998 1.05-.77 2.297-1.483 3.71-2.118 2.17-.975 2.24-2.59.16-3.604s-5.527-1.05-7.696-.074c-2.04.917-3.84 1.945-5.354 3.058-2.396 1.76-4.046 3.7-4.903 5.765C-3.085 89.19 9.52 97.94 28.75 99.692z"/>
</symbol>

<symbol id="svg-icon-gyro-compass" viewBox="0 0 55.609 100">
        <path d="M37.997 38.278l-14.71 6.62c-.11.046-.196.094-.28.168-.008.007-.018.007-.023.02-.015.008-.03.022-.048.035-.007.016-.02.03-.034.043-.007.007-.02.014-.034.026-.013.02-.026.033-.04.047-.007.014-.014.014-.014.027-.068.074-.122.17-.17.27L16.03 60.25c-.223.454-.087.99.253 1.33.34.33.9.447 1.33.257l14.715-6.62c.1-.046.193-.1.27-.168.012 0 .018-.01.022-.016.02-.014.04-.034.054-.048.01-.007.02-.02.027-.027.017-.014.03-.028.043-.034.014-.02.027-.034.04-.048l.014-.028c.068-.08.126-.162.17-.27l6.612-14.725c.227-.454.08-.977-.253-1.315-.338-.345-.9-.454-1.33-.264z"/><path d="M42.196 80.943l-1.745-5.618c-.04-.13-.085-.257-.135-.382C49.37 70.35 55.61 60.938 55.61 50.126c0-15.3-12.5-27.805-27.802-27.805-1.048 0-2.082.063-3.1.177-.038-.242-.093-.484-.167-.725L22.8 16.154c2.217-2.442 3.123-5.953 2.084-9.334-1.572-5.1-6.97-7.955-12.07-6.388C7.715 1.996 4.852 7.4 6.422 12.5c1.044 3.395 3.794 5.796 7.02 6.558l1.743 5.616c.063.2.14.393.226.58C6.29 29.83 0 39.274 0 50.124 0 65.434 12.502 77.93 27.81 77.93c1.068 0 2.124-.063 3.162-.182.033.16.074.32.124.48l1.745 5.622c-2.212 2.44-3.12 5.95-2.085 9.33 1.574 5.102 6.973 7.956 12.072 6.39 5.096-1.573 7.96-6.98 6.393-12.07-1.048-3.395-3.798-5.795-7.024-6.557zM6.748 50.125c0-11.597 9.46-21.058 21.06-21.058 11.594 0 21.054 9.46 21.054 21.058s-9.46 21.057-21.053 21.057c-11.6 0-21.063-9.46-21.063-21.057z"/>
</symbol>

<symbol id="svg-icon-humidity" viewBox="0 0 68.703 100">
        <path d="M39.82 2.74C38.453 1.027 36.573 0 34.352 0s-4.102 1.027-5.47 2.74C25.978 6.678 0 41.61 0 62.843 0 86.13 17.432 100 34.352 100c16.92 0 34.352-13.87 34.352-37.157 0-21.234-25.978-56.165-28.884-60.103zm-5.468 87.623c-11.29 0-23.156-9.204-23.156-26.27 0-12.655 13.588-35.473 23.156-49.662C45.07 30.156 57.508 52.206 57.508 64.095c0 17.066-11.865 26.27-23.156 26.27z"/>
</symbol>

<symbol id="svg-icon-internet-access" viewBox="0 0 100 100">
        <path d="M15.82 50.34c-4.318 8.052-7.256 16.495-8.846 25.348C2.317 67.75 0 59.185 0 50c0-7.93 1.76-15.414 5.268-22.45 2.73 4.207 5.79 8.228 9.19 12.074-.568 1.37-.85 2.785-.85 4.25 0 2.38.737 4.54 2.212 6.465zm3.902-15.985c-3.85-4.302-7.195-8.955-10.024-13.94 3.856-5.333 8.503-9.7 13.945-13.105 5.89 2.388 11.387 5.39 16.495 9.026-.455 1.127-.68 2.26-.68 3.386 0 .794.11 1.645.343 2.56-4.542 3.406-8.677 7.208-12.42 11.39-1.02-.334-2.037-.507-3.055-.507-1.596 0-3.124.403-4.602 1.19zm10.718 61.74c-6.463-2.733-12.133-6.702-17-11.906.786-10.55 3.683-20.524 8.67-29.94.68.23 1.417.346 2.214.346 1.923 0 3.737-.57 5.438-1.71 10.318 7.042 21.6 11.567 33.846 13.616-13.718 6.913-24.78 16.77-33.168 29.592zM44.733 10.55c-3.856-2.728-8-5.218-12.42-7.49C37.976 1.024 43.875 0 49.997 0c8.958 0 17.293 2.215 25 6.638-6.008 1.126-11.846 2.944-17.517 5.44-2.042-1.926-4.474-2.893-7.316-2.893-1.926 0-3.734.46-5.43 1.364zm-10.21 36.557c.225-1.018.34-2.094.34-3.232 0-2.03-.51-3.898-1.533-5.602 3.296-3.637 6.868-6.92 10.716-9.87 1.817 1.362 3.856 2.04 6.118 2.04 1.477 0 2.903-.28 4.258-.85 6.465 7.83 11.285 16.547 14.456 26.193-1.136.902-2.04 2.093-2.717 3.565-11.46-1.7-21.995-5.777-31.635-12.242zm37.923 26.88c.23 2.15.343 4.076.343 5.772 0 5.215-.565 10.432-1.7 15.65-6.7 3.06-13.72 4.59-21.093 4.59-4.08 0-8.164-.455-12.238-1.357C45.8 86.96 56.24 78.12 69.042 72.103c1.024.916 2.147 1.537 3.402 1.883zM95.663 29.5C98.55 35.917 100 42.748 100 50c0 2.272-.115 4.597-.346 6.978-4.65 1.357-9.355 2.266-14.107 2.72-.8-1.926-2.078-3.488-3.828-4.672-1.77-1.197-3.725-1.792-5.87-1.792C72.446 42.584 67.057 33 59.69 24.486c.797-1.466 1.197-3.054 1.197-4.763 0-.34-.067-.672-.173-1.005 7.373-3.066 15.022-5 22.96-5.787 5.1 4.65 9.1 10.173 11.99 16.573zm-9.78 37.68c3.962-.347 7.934-1.03 11.902-2.043-3.402 10.427-9.52 18.876-18.365 25.334.452-3.63.676-7.2.676-10.714 0-1.92-.05-3.963-.17-6.12 2.95-1.255 4.935-3.4 5.957-6.46z"/>
</symbol>

<symbol id="svg-icon-internet-link" viewBox="0 0 85.695 100">
        <path d="M55.097 38.782c0-4.583-3.715-8.298-8.298-8.298-.707 0-1.393.09-2.046.255C31.23 19.534 16.124 15.87 9.12 22.772c-7.93 7.81-16.928 29.46 2.664 49.05 20.733 20.734 42.433 12.58 50.36 4.77 6.985-6.884 3.586-21.974-7.34-35.632.19-.693.293-1.424.293-2.18zm1.832 31.262c-4.94 4.866-18.2-.58-29.615-12.167S10.65 32.952 15.59 28.087c4.12-4.06 14.023-.943 23.82 6.923-.136.264-.257.536-.363.815h-9.175c-1.633 0-2.957 1.323-2.957 2.957 0 1.633 1.324 2.957 2.957 2.957h9.175c.84 2.2 2.592 3.952 4.795 4.793v8.013c0 1.633 1.324 2.957 2.957 2.957 1.632 0 2.955-1.324 2.955-2.957v-8.013c.236-.09.467-.188.69-.3C58.102 56.11 61.03 66 56.928 70.043zM46.8 14.654c-1.916 0-3.468 1.552-3.468 3.467 0 1.917 1.552 3.47 3.467 3.47 9.48 0 17.19 7.712 17.19 17.192 0 1.916 1.554 3.468 3.468 3.468s3.467-1.552 3.467-3.467c0-13.302-10.824-24.126-24.128-24.126z"/><path d="M46.74 0c-1.915 0-3.467 1.552-3.467 3.467s1.552 3.467 3.467 3.467c17.656 0 32.02 14.364 32.02 32.02 0 1.916 1.553 3.47 3.468 3.47s3.467-1.554 3.467-3.47C85.695 17.477 68.22 0 46.74 0zM8.502 100s.37-5.203 3.14-9.075c2.944-4.113 8.03-5.975 8.03-5.975s3.408 3.444 13.222 4.753c9.813 1.31 15.136-.087 15.136-.087s2.793 1.658 4.363 4.625c1.57 2.97 1.483 5.76 1.483 5.76H8.502z"/>
</symbol>

<symbol id="svg-icon-menu" viewBox="0 0 30 20.625">
        <path d="M0 0v5.63h30V0H0zm0 20.625h30v-5.62H0v5.62z"/>
</symbol>

<symbol id="svg-icon-more" viewBox="0 0 100 100">
        <path d="M50.002 0C22.385 0 0 22.39 0 50.005 0 77.62 22.385 100 50.002 100 77.617 100 100 77.62 100 50.005S77.617 0 50.002 0zm28.79 54.1H55.767v26.486H44.4V54.1H21.204V43.83H44.4V19.415h11.366V43.83H78.79V54.1z"/>
</symbol>

<symbol id="svg-icon-omenium-computer" viewBox="0 -2.505 100 78.015">
        <path d="M97.425-2.505H2.572C1.15-2.505 0-1.352 0 .065V72.93c0 1.423 1.15 2.58 2.572 2.58h94.853c1.42 0 2.575-1.157 2.575-2.58V.064c0-1.416-1.155-2.57-2.575-2.57zM65.323 71.603h-30.64v-3.886h30.64v3.886zm23.96-7.6H10.718V8.867h78.567V64zm4.56-58.56c-1.258 0-2.277-1.018-2.277-2.276S92.586.89 93.844.89s2.277 1.02 2.277 2.277-1.016 2.277-2.275 2.277z"/>
</symbol>

<symbol id="svg-icon-precipitation" viewBox="0 0 100 87.548">
        <path d="M36.765 49.613c-2.436 0-4.41 1.956-4.41 4.376v5.833c0 2.423 1.975 4.38 4.41 4.38s4.41-1.957 4.41-4.38V53.99c0-2.42-1.975-4.377-4.41-4.377zm0 17.51c-2.436 0-4.41 1.957-4.41 4.377v5.838c0 2.417 1.975 4.376 4.41 4.376s4.41-1.96 4.41-4.376V71.5c0-2.42-1.975-4.376-4.41-4.376zM51.47 72.96c-2.433 0-4.41 1.958-4.41 4.378v5.835c0 2.42 1.977 4.376 4.412 4.376 2.437 0 4.414-1.956 4.414-4.377v-5.835c0-2.42-1.978-4.376-4.413-4.376zm14.705-5.835c-2.435 0-4.41 1.956-4.41 4.376v5.84c0 2.416 1.976 4.375 4.41 4.375 2.436 0 4.413-1.96 4.413-4.376V71.5c0-2.42-1.978-4.376-4.413-4.376zM51.47 55.448c-2.434 0-4.412 1.96-4.412 4.376v5.838c0 2.42 1.978 4.38 4.413 4.38 2.438 0 4.415-1.96 4.415-4.38v-5.838c0-2.417-1.978-4.376-4.413-4.376zm36.765-21.885c0-11.85-9.49-21.472-21.335-21.85C61.242 4.586 52.496 0 42.645 0 26.232 0 12.848 12.716 11.86 28.756 4.814 32.413 0 39.716 0 48.154c0 12.088 9.875 21.888 22.058 21.888 2.436 0 4.413-1.96 4.413-4.38 0-2.417-1.976-4.38-4.41-4.38-7.297 0-13.233-5.887-13.233-13.128 0-4.9 2.73-9.36 7.123-11.637l4.412-2.292.305-4.93c.708-11.52 10.363-20.54 21.978-20.54 6.787 0 13.098 3.052 17.325 8.374l2.542 3.2 4.108.13c7.17.23 12.793 5.984 12.793 13.1v5.833l5.43 2.246c3.848 1.592 6.33 5.294 6.33 9.432 0 5.63-4.612 10.21-10.29 10.21-2.435 0-4.412 1.96-4.412 4.378 0 2.42 1.98 4.38 4.415 4.38C91.442 70.043 100 61.55 100 51.075c0-7.895-4.855-14.652-11.765-17.51zm-22.06 16.05c-2.436 0-4.41 1.956-4.41 4.376v5.833c0 2.423 1.975 4.38 4.41 4.38s4.412-1.957 4.412-4.38V53.99c0-2.42-1.978-4.377-4.413-4.377z"/>
</symbol>

<symbol id="svg-icon-radiation" viewBox="0 0 100 100">
        <path fill-rule="evenodd" clip-rule="evenodd" d="M50 25.77c-13.326 0-24.23 10.903-24.23 24.23S36.675 74.23 50 74.23c13.325 0 24.23-10.904 24.23-24.23S63.325 25.77 50 25.77zm0 39.65c-8.48 0-15.42-6.94-15.42-15.42S41.52 34.582 50 34.582 65.418 41.52 65.418 50 58.48 65.42 50 65.42zm0-47.69c2.423 0 4.405-1.98 4.405-4.404v-8.92C54.405 1.98 52.423 0 50 0c-2.424 0-4.405 1.982-4.405 4.405v8.92c0 2.534 1.982 4.406 4.405 4.406zm45.594 27.865h-8.92c-2.423 0-4.405 1.982-4.405 4.405s1.98 4.405 4.403 4.405h8.92c2.424 0 4.406-1.982 4.406-4.405s-1.983-4.405-4.407-4.405zM50 82.27c-2.424 0-4.405 1.98-4.405 4.404v8.92c0 2.424 1.98 4.406 4.405 4.406 2.423 0 4.405-1.982 4.405-4.405v-8.92c0-2.534-1.982-4.406-4.405-4.406zM17.73 50c0-2.423-1.98-4.405-4.404-4.405h-8.92C1.982 45.595 0 47.577 0 50s1.982 4.405 4.405 4.405h8.92c2.534 0 4.406-1.982 4.406-4.405zm58.15-21.476c1.103 0 2.203-.44 3.085-1.322l6.387-6.387c1.763-1.763 1.763-4.516 0-6.278-1.762-1.762-4.515-1.762-6.277 0l-6.388 6.387c-1.762 1.763-1.762 4.516 0 6.277.99.885 2.093 1.325 3.194 1.325zm3.085 44.273c-1.763-1.762-4.516-1.762-6.278 0-1.762 1.763-1.762 4.516 0 6.278l6.388 6.388c.88.88 1.982 1.32 3.084 1.32s2.2-.44 3.082-1.32c1.762-1.763 1.762-4.516 0-6.277l-6.278-6.39zm-57.93 0l-6.387 6.39c-1.763 1.76-1.763 4.514 0 6.276.88.88 1.982 1.32 3.083 1.32 1.104 0 2.205-.44 3.086-1.32l6.388-6.388c1.762-1.763 1.762-4.516 0-6.278-1.653-1.762-4.516-1.762-6.167 0zm0-45.595c.772.882 1.983 1.322 3.084 1.322 1.1 0 2.2-.44 3.082-1.322 1.762-1.762 1.762-4.515 0-6.277l-6.388-6.387c-1.762-1.762-4.516-1.762-6.277 0-1.763 1.762-1.763 4.515 0 6.278l6.498 6.386z"/>
</symbol>

<symbol id="svg-icon-temperature" viewBox="0 0 40.345 100">
        <path d="M31.882 63.458V11.833C31.882 5.22 26.55 0 20.057 0 13.447 0 8.23 5.336 8.23 11.833v51.74C3.13 67.286 0 73.318 0 79.815 0 90.952 9.043 100 20.173 100c11.13 0 20.172-9.05 20.172-20.186-.232-6.496-3.363-12.528-8.463-16.356zm-7.052-13.27h-9.896V12.44c.152-2.742 2.284-5.027 5.024-5.027s4.87 2.285 4.87 4.875v37.9z"/>
</symbol>

<symbol id="svg-icon-wind-direction" viewBox="0 0 96.528 100">
        <path fill-rule="evenodd" clip-rule="evenodd" d="M81.767 34.51c-4.08 0-8.04 1.68-10.8 4.678-1.8 1.92-1.68 4.918.24 6.837 1.92 1.8 4.92 1.68 6.84-.24.96-1.08 2.28-1.68 3.72-1.68 2.88 0 5.16 2.28 5.16 5.157 0 2.878-2.28 5.157-5.16 5.157H28.81c-2.642 0-4.802 2.157-4.802 4.796s2.16 4.798 4.8 4.798h52.96c8.16 0 14.76-6.597 14.76-14.753 0-8.155-6.6-14.752-14.76-14.752zm-21.84 35.982H4.8c-2.64 0-4.8 2.16-4.8 4.798s2.16 4.798 4.8 4.798h55.125c2.88 0 5.16 2.28 5.16 5.158 0 2.878-2.28 5.157-5.16 5.157-1.44 0-2.76-.6-3.72-1.68-1.8-1.918-4.8-2.038-6.842-.24-1.92 1.8-2.04 4.8-.24 6.838 2.762 3 6.722 4.68 10.803 4.68 8.16 0 14.76-6.597 14.76-14.753-.12-8.156-6.72-14.754-14.76-14.754z"/><path d="M40.027 19.05c-.448 0-.895.106-1.293.31l-11.97 5.52-.072.036c-.198.104-.39.23-.574.382-.044.036-.15.133-.208.19-.002 0-.004.003-.006.005l-.01.01c-.044.046-.134.142-.196.216-.147.176-.275.37-.38.57l-5.552 12.027c-.56 1.064-.385 2.364.44 3.19.49.488 1.157.757 1.882.758.45 0 .896-.107 1.295-.31l11.97-5.525.077-.036c.2-.105.393-.232.567-.378.096-.08.25-.23.272-.254l.02-.022c.034-.037.125-.143.13-.146.145-.176.27-.367.376-.57l5.552-12.027c.56-1.063.384-2.363-.44-3.188-.488-.493-1.157-.76-1.883-.76z"/><path d="M31.06 0C14.07 0 .247 13.822.247 30.81c0 10.337 5.142 19.93 13.755 25.664.804.535 1.713.792 2.61.792 1.527 0 3.025-.74 3.935-2.105 1.444-2.17.856-5.1-1.313-6.543C13.257 44.637 9.69 37.98 9.69 30.81c0-11.783 9.585-21.37 21.37-21.37 11.783 0 21.37 9.587 21.37 21.37 0 2.706-.497 5.34-1.48 7.83-.62 1.574-1.43 3.077-2.408 4.466-1.502 2.13-.992 5.076 1.14 6.577 2.13 1.502 5.074.992 6.576-1.14 1.412-2.002 2.58-4.17 3.477-6.442 1.417-3.595 2.136-7.394 2.136-11.29C61.87 13.824 48.05 0 31.06 0z"/>
</symbol>

<symbol id="svg-icon-wind-speed" viewBox="0 0 100 68.216">
        <path fill-rule="evenodd" clip-rule="evenodd" d="M84.625 0c-4.25 0-8.376 1.75-11.25 4.873-1.875 2-1.75 5.122.25 7.12 2 1.875 5.125 1.75 7.124-.25 1-1.124 2.373-1.748 3.874-1.748 3 0 5.375 2.374 5.375 5.372 0 3-2.377 5.372-5.376 5.372H5c-2.75 0-5 2.247-5 4.996 0 2.748 2.25 4.997 5 4.997h79.625c8.5 0 15.374-6.87 15.374-15.367C100 6.872 93.123 0 84.623 0zm-22.75 37.48H5c-2.75 0-5 2.25-5 4.998 0 2.75 2.25 4.998 5 4.998h56.875c3 0 5.375 2.374 5.375 5.372 0 3-2.375 5.372-5.375 5.372-1.5 0-2.875-.624-3.875-1.75-1.876-1.998-5-2.123-7.126-.25-2 1.875-2.124 5-.25 7.123 2.876 3.123 7 4.872 11.25 4.872 8.5 0 15.375-6.87 15.375-15.367-.126-8.495-7-15.367-15.376-15.367z"/>
</symbol>

<symbol id="svg-logo-omenium" viewBox="0 0 420.255 55.513">
        <path fill="#414042" d="M28.918 0c4.564 0 8.648.59 12.25 1.77 3.604 1.18 6.64 2.93 9.112 5.25 2.475 2.322 4.362 5.213 5.668 8.675 1.307 3.463 1.96 7.477 1.96 12.043 0 4.59-.653 8.617-1.96 12.08-1.307 3.46-3.194 6.353-5.668 8.674-2.472 2.322-5.51 4.072-9.11 5.25-3.604 1.18-7.69 1.77-12.252 1.77-4.57 0-8.644-.59-12.235-1.77-3.588-1.178-6.618-2.928-9.093-5.25-2.475-2.32-4.357-5.212-5.652-8.674C.646 36.354 0 32.328 0 27.738c0-4.567.646-8.58 1.94-12.044 1.294-3.46 3.176-6.353 5.65-8.674 2.476-2.322 5.505-4.072 9.094-5.25C20.274.59 24.35 0 28.918 0zm0 12.86c-1.903 0-3.558.305-4.966.913-1.408.61-2.583 1.46-3.52 2.55-.94 1.09-1.644 2.397-2.114 3.92-.47 1.52-.703 3.195-.703 5.02v4.985c0 1.826.233 3.5.703 5.022.47 1.52 1.175 2.828 2.113 3.92.94 1.09 2.115 1.94 3.523 2.55 1.408.607 3.063.912 4.966.912 1.9 0 3.562-.305 4.98-.913 1.423-.61 2.61-1.46 3.56-2.55.95-1.093 1.66-2.4 2.13-3.92.47-1.523.703-3.197.703-5.023v-4.984c0-1.826-.235-3.5-.703-5.022-.47-1.52-1.18-2.827-2.132-3.92-.95-1.09-2.136-1.94-3.558-2.55-1.42-.606-3.08-.91-4.982-.91zM130.28 54.562h-17.046v-19.33c0-2.028.063-4.052.19-6.068s.268-3.836.418-5.46c.18-1.902.395-3.716.65-5.44h-.344l-9.894 36.3H90.786l-9.97-36.224h-.302c.254 1.725.48 3.526.684 5.403.176 1.598.34 3.405.496 5.422.15 2.017.226 4.04.226 6.07v19.328H66.093V.95h24.312l8.105 30.934h.303L106.84.95h23.44v53.612zm120.083 0h-15.027L212.81 28.536V54.56h-15.79V.95h15.03l22.525 26.406V.95h15.788v53.612zm29.565 0h-17.235V.95h17.235v53.612zM345.6 32.987c0 3.704-.594 6.958-1.785 9.76-1.194 2.802-2.93 5.15-5.213 7.04-2.284 1.89-5.074 3.316-8.37 4.28-3.3.963-7.054 1.446-11.263 1.446-4.214 0-7.974-.483-11.285-1.446s-6.108-2.39-8.39-4.28c-2.282-1.89-4.026-4.237-5.232-7.04-1.205-2.803-1.807-6.057-1.807-9.76V.95h17.198v31.81c0 1.444.197 2.77.59 3.976s.982 2.244 1.77 3.12c.785.875 1.768 1.56 2.947 2.054 1.18.495 2.558.743 4.13.743s2.954-.248 4.148-.743c1.19-.494 2.187-1.18 2.983-2.054.8-.875 1.397-1.915 1.79-3.12.395-1.205.59-2.53.59-3.977V.95h17.2v32.037zm74.655 21.575h-17.048v-19.33c0-2.028.065-4.052.192-6.068s.264-3.836.417-5.46c.176-1.902.392-3.716.646-5.44h-.343l-9.89 36.3h-13.472l-9.97-36.224h-.303c.253 1.725.48 3.526.684 5.403.177 1.598.34 3.405.494 5.422.152 2.017.228 4.04.228 6.07v19.328h-15.828V.95h24.313l8.105 30.934h.303L396.815.95h23.44v53.612z"/><path fill="#BE1E2D" d="M157.94 13.812h29.148V.95h-46.345v12.862M159.65 33.52h27.438V21.333h-46.345v12.19m0 8.177v12.862h46.345V41.7h-29.342"/>
</symbol>

<symbol id="svg-logo-omniskyone" viewBox="0 0 557.249 55.515">
        <path d="M528.103 13.967h29.146V1.107h-46.346v12.86m18.908 19.71h27.437v-12.19h-46.346v12.19m0 8.18v12.86h46.345v-12.86h-29.344M499.406 54.568H484.46l-22.398-25.88v25.88h-15.704V1.258h14.946l22.398 26.257V1.257h15.704v53.31zM429.54 7.29c-2.46-2.306-5.48-4.047-9.062-5.22-.435-.143-.897-.25-1.348-.375l-7.616 11.797c.604.142 1.205.285 1.74.514 1.41.607 2.587 1.45 3.534 2.536s1.653 2.384 2.117 3.897c.468 1.51.7 3.176.7 4.992v4.955c0 1.818-.232 3.482-.7 4.996-.464 1.513-1.17 2.813-2.117 3.898-.947 1.085-2.124 1.93-3.535 2.534-1.415.605-3.065.908-4.96.908-1.89 0-3.535-.303-4.935-.908s-2.57-1.45-3.5-2.533c-.935-1.084-1.635-2.384-2.102-3.897-.043-.14-.058-.297-.097-.44l-.113.175v19.03c3.22.89 6.787 1.365 10.744 1.365 4.544 0 8.605-.588 12.186-1.76 3.58-1.174 6.603-2.914 9.062-5.22 2.457-2.31 4.337-5.187 5.637-8.632 1.297-3.44 1.948-7.444 1.948-12.01 0-4.54-.65-8.53-1.948-11.975-1.3-3.44-3.18-6.317-5.637-8.626z" fill="#808285"/><path fill="#414042" d="M28.755 0c4.54 0 8.6.586 12.182 1.76C44.52 2.933 47.54 4.674 50 6.98c2.46 2.31 4.338 5.185 5.638 8.627 1.3 3.443 1.95 7.436 1.95 11.975 0 4.566-.65 8.57-1.95 12.01-1.3 3.444-3.178 6.323-5.638 8.632-2.458 2.307-5.48 4.047-9.062 5.22-3.582 1.173-7.642 1.76-12.182 1.76-4.542 0-8.596-.587-12.164-1.76-3.57-1.173-6.584-2.913-9.044-5.22-2.458-2.31-4.332-5.188-5.618-8.63C.643 36.15 0 32.147 0 27.58c0-4.54.643-8.53 1.93-11.975 1.285-3.44 3.16-6.315 5.616-8.625 2.46-2.307 5.474-4.048 9.044-5.22C20.16.585 24.215 0 28.756 0zm0 12.787c-1.893 0-3.54.304-4.938.908-1.4.607-2.567 1.45-3.5 2.535-.933 1.085-1.633 2.385-2.1 3.898-.466 1.512-.7 3.178-.7 4.994v4.955c0 1.818.234 3.48.7 4.996.467 1.513 1.167 2.813 2.1 3.896.933 1.084 2.1 1.93 3.5 2.533 1.4.605 3.045.908 4.938.908 1.892 0 3.543-.302 4.956-.907 1.414-.605 2.593-1.45 3.54-2.535.946-1.084 1.652-2.384 2.12-3.897.464-1.514.7-3.177.7-4.995V25.12c0-1.816-.236-3.482-.7-4.994-.468-1.514-1.174-2.813-2.12-3.898-.947-1.084-2.126-1.928-3.538-2.535-1.412-.604-3.063-.908-4.955-.908zm100.795 41.47h-16.952v-19.22c0-2.02.063-4.03.19-6.035.125-2.006.264-3.816.416-5.43.175-1.893.39-3.695.643-5.41h-.34l-9.838 36.095H90.274l-9.913-36.02h-.303c.25 1.715.477 3.505.68 5.372.175 1.586.34 3.385.492 5.39.15 2.005.226 4.017.226 6.035v19.22H65.72V.947h24.176l8.06 30.76h.302L106.24.947h23.308v53.31zm63.45 0h-14.946l-22.4-25.88v25.88h-15.7V.947H154.9l22.398 26.256V.946H193v53.31zm29.396 0h-17.138V.947h17.138v53.31z"/><path d="M257.017 0c3.203 0 6.225.322 9.06.965 2.84.644 5.324 1.64 7.456 2.988 2.13 1.35 3.827 3.06 5.088 5.127 1.264 2.07 1.92 4.528 1.97 7.38v.907H264.55v-.304c0-.706-.126-1.382-.378-2.024-.254-.645-.658-1.22-1.212-1.723-.556-.505-1.27-.908-2.138-1.21s-1.924-.455-3.16-.455c-2.37 0-4.143.347-5.316 1.04-1.172.695-1.758 1.508-1.758 2.44 0 1.01.447 1.817 1.342 2.42.896.608 2.076 1.118 3.54 1.534s3.126.795 4.993 1.136c1.87.34 3.778.75 5.734 1.23 1.953.478 3.87 1.07 5.75 1.776s3.564 1.64 5.053 2.8c1.486 1.16 2.69 2.592 3.61 4.293.92 1.704 1.407 3.79 1.458 6.264 0 3.305-.592 6.135-1.777 8.497-1.186 2.358-2.833 4.288-4.938 5.79-2.106 1.5-4.592 2.598-7.455 3.29s-5.97 1.04-9.326 1.04c-3.734 0-7.21-.277-10.425-.832-3.216-.553-6.003-1.545-8.362-2.97-2.36-1.425-4.207-3.368-5.543-5.827-1.337-2.46-2.003-5.58-2.003-9.365h16.192c0 1.438.2 2.592.602 3.463.404.87.98 1.55 1.723 2.04.744.493 1.646.82 2.705.985 1.062.164 2.246.246 3.558.246.782 0 1.613-.03 2.497-.094.882-.064 1.696-.21 2.44-.436s1.36-.58 1.854-1.058c.49-.48.736-1.137.736-1.97 0-.957-.45-1.726-1.343-2.307-.896-.578-2.08-1.078-3.557-1.494s-3.16-.8-5.052-1.152c-1.89-.353-3.815-.78-5.77-1.286-1.955-.503-3.88-1.14-5.77-1.908-1.892-.77-3.576-1.772-5.05-3.01-1.477-1.234-2.663-2.756-3.558-4.56-.896-1.802-1.344-4.003-1.344-6.602 0-3.103.655-5.737 1.968-7.907 1.312-2.17 3.065-3.928 5.26-5.277 2.195-1.35 4.734-2.334 7.623-2.952 2.89-.614 5.91-.924 9.064-.924zm50.7 23.723L326.71.946h21.227L328.792 22.89l19.52 31.367h-20.2l-11.086-19.525-9.31 7.605v11.92h-17.1V.947h17.1v22.776zm80.513 9.837v20.698h-17.14V33.56L349.942.946h19.71L379.87 18.69h.3L390.39.947h18.69L388.232 33.56z" fill="#BE1E2D"/>
</symbol>

<symbol id="svg-logo-omniskywx" viewBox="0 0 527.042 55.204">
        <path fill="#808285" d="M508.014 26.3l19.03 28.11H506.27l-9.835-16.57h-.305l-9.838 16.57h-19.22l19.07-28.188-17.215-25.12h20.695l8.06 13.62h.302L506.12 1.1h19.146l-17.252 25.197zM449.33 1.1l-5.714 30.232h-.34l-6.434-30.23H419.97l-6.052 30.23h-.303l-3.293-16.242-12.772 19.392v.29l4.6 19.638h18.845l6.883-32.46h.3l6.888 32.46h18.843L466.392 1.1"/><path fill="#414042" d="M28.755 0c4.54 0 8.6.586 12.182 1.76C44.52 2.932 47.54 4.674 50 6.98c2.46 2.31 4.338 5.184 5.638 8.627 1.3 3.443 1.95 7.436 1.95 11.975 0 4.566-.65 8.57-1.95 12.01-1.3 3.444-3.178 6.323-5.638 8.632-2.458 2.307-5.48 4.047-9.062 5.22-3.582 1.173-7.642 1.76-12.182 1.76-4.542 0-8.596-.587-12.164-1.76-3.57-1.173-6.584-2.913-9.044-5.22-2.458-2.31-4.332-5.188-5.618-8.63C.643 36.15 0 32.147 0 27.58c0-4.54.643-8.53 1.93-11.975S5.09 9.29 7.546 6.98c2.46-2.307 5.474-4.05 9.044-5.22C20.16.585 24.215 0 28.756 0zm0 12.787c-1.893 0-3.54.303-4.938.908-1.4.607-2.567 1.45-3.5 2.535-.933 1.084-1.633 2.385-2.1 3.898-.466 1.512-.7 3.178-.7 4.994v4.955c0 1.818.234 3.48.7 4.996.467 1.512 1.167 2.813 2.1 3.896.933 1.084 2.1 1.93 3.5 2.533 1.4.605 3.045.908 4.938.908 1.892 0 3.543-.302 4.956-.907 1.414-.605 2.593-1.45 3.54-2.535.946-1.084 1.652-2.385 2.12-3.897.464-1.515.7-3.177.7-4.995V25.12c0-1.816-.236-3.482-.7-4.994-.468-1.514-1.174-2.814-2.12-3.898-.947-1.084-2.126-1.928-3.538-2.535-1.412-.605-3.063-.908-4.955-.908zm100.795 41.47h-16.952V35.035c0-2.018.063-4.03.19-6.033.125-2.006.264-3.816.416-5.43.175-1.893.39-3.695.643-5.41h-.34l-9.838 36.095H90.274l-9.913-36.02h-.303c.25 1.714.477 3.505.68 5.372.175 1.586.34 3.385.492 5.39.15 2.005.226 4.017.226 6.034v19.222H65.72V.946h24.176l8.06 30.76h.302L106.24.945h23.308v53.31zm63.45 0h-14.946l-22.4-25.88v25.88h-15.7V.945H154.9l22.398 26.258V.945H193v53.312zm29.396 0h-17.138V.945h17.138v53.312z"/><path d="M257.017 0c3.203 0 6.225.322 9.06.965 2.84.643 5.324 1.64 7.456 2.988 2.13 1.35 3.827 3.06 5.088 5.127 1.264 2.07 1.92 4.527 1.97 7.38v.907H264.55v-.305c0-.705-.126-1.38-.378-2.023-.254-.645-.658-1.22-1.212-1.723-.556-.506-1.27-.908-2.138-1.21s-1.924-.456-3.16-.456c-2.37 0-4.143.35-5.316 1.04-1.172.697-1.758 1.51-1.758 2.443 0 1.008.447 1.816 1.342 2.42.896.607 2.076 1.117 3.54 1.533s3.126.795 4.993 1.135 3.778.75 5.734 1.23c1.953.48 3.87 1.073 5.75 1.778 1.88.706 3.564 1.64 5.053 2.798 1.486 1.162 2.69 2.594 3.61 4.295.92 1.704 1.407 3.79 1.458 6.263 0 3.306-.592 6.136-1.777 8.497-1.186 2.357-2.833 4.287-4.938 5.79-2.106 1.5-4.592 2.597-7.455 3.29s-5.97 1.04-9.326 1.04c-3.734 0-7.21-.278-10.425-.833-3.216-.554-6.003-1.546-8.362-2.97-2.36-1.426-4.207-3.37-5.543-5.828-1.337-2.46-2.003-5.583-2.003-9.367h16.192c0 1.44.2 2.593.602 3.464.404.87.98 1.55 1.723 2.04.744.493 1.646.82 2.705.985 1.062.164 2.246.246 3.558.246.782 0 1.613-.03 2.497-.093.882-.064 1.696-.21 2.44-.436s1.36-.58 1.854-1.06c.49-.48.736-1.136.736-1.97 0-.956-.45-1.726-1.343-2.306-.896-.578-2.08-1.078-3.557-1.494s-3.16-.8-5.052-1.153c-1.89-.354-3.815-.78-5.77-1.287-1.955-.504-3.88-1.14-5.77-1.908-1.892-.77-3.576-1.773-5.05-3.01-1.477-1.234-2.663-2.756-3.558-4.56-.896-1.802-1.344-4.003-1.344-6.603 0-3.104.655-5.738 1.968-7.908 1.312-2.17 3.065-3.928 5.26-5.277 2.195-1.352 4.734-2.334 7.623-2.953 2.89-.614 5.91-.923 9.064-.923zm50.7 23.723L326.71.945h21.227L328.792 22.89l19.52 31.366h-20.2l-11.086-19.524-9.31 7.604v11.92h-17.1V.946h17.1v22.777zm80.513 9.837v20.697h-17.14V33.56L349.942.944h19.71L379.87 18.69h.3L390.39.946h18.69L388.232 33.56z" fill="#0089CF"/>
</symbol>
</svg>